<svg xmlns="http://www.w3.org/2000/svg" viewBox="0 0 214.6 214.51"><defs><style>.a{fill:#404040;}.b{fill:#f06334;}.c{fill:#c7532c;}.d{fill:#f1815d;}.e{fill:#f0a58d;}.f{fill:#953e22;}</style></defs><title>python40</title><path class="a" d="M916.9,487c0-.52-.06-.87-.06-1.22,0-7.88-.08-15.76,0-23.64a39.16,39.16,0,0,1,1-7.69c1.35-6.09,5.32-10,10.86-12.56a56.93,56.93,0,0,1,17.22-4.43c6.37-.74,12.78-1.18,19.17-1.61,5.95-.4,11.77.56,17.59,1.68,4.05.78,8.09,1.55,11.81,3.4,8.42,4.17,14.46,10.3,16.12,19.94a15.64,15.64,0,0,1,.23,2.73c0,16.52.16,33,0,49.56-.13,10.08-5.09,17.51-13.87,22.36a25.13,25.13,0,0,1-12.45,2.94c-14.52,0-29,.13-43.56-.06-16.08-.2-29.67,12.08-32.44,27.13a27,27,0,0,0-.42,4.75c0,9.28,0,18.56,0,27.84,0,.19,0,.37,0,.69H887.46c-8.78,0-15.63-3.69-20.74-10.73a41.12,41.12,0,0,1-6.84-16.34c-1.15-5.66-2.3-11.34-3-17.07a71.27,71.27,0,0,1,1-22.14,100.78,100.78,0,0,1,3.56-14.76c4.58-12.75,13.82-20,27.34-21.57a44.18,44.18,0,0,1,5-.25h74.51V487Zm11.56-21.27a9.63,9.63,0,0,0,19.26-.06,9.63,9.63,0,1,0-19.26.06Z" transform="translate(-856.45 -435.8)"/><path class="b" d="M916.56,590.16c0-6.25-.09-12.33,0-18.4a22.75,22.75,0,0,1,2.56-9.77,27.76,27.76,0,0,1,6.13-8,1.54,1.54,0,0,1,.74-.27,4.71,4.71,0,0,1,.84,0h143.37a16.71,16.71,0,0,0-.42,1.91c-.27,1.38-.55,2.66-.87,4a72.47,72.47,0,0,1-2.22,8.55,33.22,33.22,0,0,1-4.87,9.06,27.12,27.12,0,0,1-7.2,7c-2.05,1.23-4.11,2.48-6.26,3.5a29.82,29.82,0,0,1-12.93,2.47q-58.62,0-117.23,0Z" transform="translate(-856.45 -435.8)"/><path class="c" d="M916.56,599.13h94.56c0,8,.06,16,0,23.91a55.48,55.48,0,0,1-.75,8.13,16.23,16.23,0,0,1-1.63,4.12,1.2,1.2,0,0,1-.57.69c-.24,0-1,0-1.27,0q-42,0-84,0a2.33,2.33,0,0,1-2.33-1.18,33.67,33.67,0,0,1-2.76-5.62,28.15,28.15,0,0,1-1.25-9.5q0-9.6,0-19.19Zm73,30.39a8.92,8.92,0,0,0,9.43-9.18,9.39,9.39,0,0,0-18.78-.09A8.86,8.86,0,0,0,989.6,629.52Z" transform="translate(-856.45 -435.8)"/><path class="d" d="M1019.41,508.08h6.17c13.12,0,26.24,0,39.35,0,.62,0,1,0,1.46,0a3.91,3.91,0,0,1,.61,1.59c.49,2.2,1,4.4,1.48,6.6.41,1.88.86,3.75,1.19,5.64.38,2.26.62,4.56,1,6.8.51,5.35.28,10.53.38,16h-71C1014.94,537.08,1020.71,524.48,1019.41,508.08Z" transform="translate(-856.45 -435.8)"/><path class="e" d="M1062.27,499.17h-42.66V487h1.25c6.92,0,13.84,0,20.75,0a17,17,0,0,1,4.68.51,27.23,27.23,0,0,1,9.85,4.91A51,51,0,0,1,1062.27,499.17Z" transform="translate(-856.45 -435.8)"/><path class="f" d="M932.68,644.9H998a4.35,4.35,0,0,1-.45.17c-1.49.49-3,1-4.47,1.47a54.9,54.9,0,0,1-11,2.36c-2.93.35-5.7.61-8.66.86-7.1.92-14.18.42-21.15.32a35.82,35.82,0,0,1-6.27-1c-.62-.07-2.84-.59-4.21-.94-2-.5-4-1.18-5.92-1.83-1.09-.36-2.15-.8-3.22-1.2Z" transform="translate(-856.45 -435.8)"/></svg>