<svg xmlns="http://www.w3.org/2000/svg" viewBox="0 0 199.52 220.23"><defs><style>.a{fill:#404040;}.b{fill:#f0a58d;}.c{fill:#953e22;}.d{fill:#c7532c;}.e{fill:#f1815d;}.f{fill:#f06334;}</style></defs><title>nodejs40</title><path class="a" d="M923.52,629c-2-1.1-4-2.21-6-3.33-6.61-3.67-12.93-7.28-19.53-11a3.44,3.44,0,0,1-.58-.35,16.07,16.07,0,0,1,1.73.37,34.27,34.27,0,0,0,19.39,1.1c4.44-1.11,8.46-3,11.41-6.65l3.53-6a22.86,22.86,0,0,0,2-9.15c.08-8.19,0-16.39,0-24.59,0-2,0-3.91,0-5.87v-6c0-.48,0-1,0-1.44q0-18.23,0-36.46c0-.48,0-1,0-1.44v-6q0-6.43,0-12.87c0-.22-.21-.39-.28-.61-.48-.38-.89-.81-1.36-1.19a4.4,4.4,0,0,0-1-.22c-3.44,0-6.88,0-10.32,0a1.92,1.92,0,0,0-2.16,1.44c-.07.18-.22.35-.22.53,0,4.31,0,8.62.05,12.93v6c0,.27-.06.55-.06.83v37.66c0,.28,0,.56.06.83v6c0,.23-.06.47-.06.71v27.09a10.19,10.19,0,0,1-7.26,9.87,14.63,14.63,0,0,1-11.46-1.31c-7.91-4.28-15.72-8.75-23.54-13.21-.56-.32-.82-1.18-1.22-1.79a8.74,8.74,0,0,1-.18-1.43c0-8.67,0-26,0-26s0-42.89,0-65.05a3.4,3.4,0,0,1,1.39-3c1.79-1.12,3.65-2.13,5.49-3.15,2.7-1.49,5.41-2.93,8.09-4.44,2.31-1.3,4.55-2.69,6.85-4,3.11-1.77,6.25-3.49,9.37-5.22l10.59-5.94c.61-.36,1.22-.73,1.84-1.08,6.43-3.61,12.88-7.2,19.31-10.83,3.41-1.92,6.79-3.89,10.19-5.82s6.71-3.75,10-5.65a3.4,3.4,0,0,1,3.68,0c6,3.38,11.94,6.72,17.9,10.08s11.9,6.77,17.87,10.12c1.9,1.07,3.86,2,5.79,3.05l10.58,6.05c2.15,1.26,4.29,2.54,6.46,3.77,7.2,4.05,14.43,8.06,21.61,12.15a23.08,23.08,0,0,1,2.83,2.25,6.24,6.24,0,0,1,.25,1.79l0,35,0,35.94s0,18.9,0,20.29c-.2,1.3,0,1.76-1.86,3.19-4.32,2.53-8.7,5-13.06,7.44L1016.59,603,1006,609a4.77,4.77,0,0,0-.66.26l-22.77,12.88q-9.5,5.39-19,10.77a3.63,3.63,0,0,1-3.4.33,23,23,0,0,1-2.24-1.32c-6.06-3.51-12.14-7-18.19-10.54a3.06,3.06,0,0,0-3.45-.08A45.78,45.78,0,0,1,931,624c-2.22,1-4.54,1.67-6.77,2.6C922.53,627.33,922.51,627.62,923.52,629Zm36.18-70.47c-.36-1.57-.54-3.19-.93-4.76a2.14,2.14,0,0,0-2.12-1.77c-3,0-6.06,0-9.09,0a11.33,11.33,0,0,1-1.59.2c-1.39-.22-2.34.22-2.52,1.58a26.54,26.54,0,0,0,0,3.78q.62,3,1.21,6a3.4,3.4,0,0,0,.07.46c2.61,7.61,8,12.46,15.21,15.62s14.7,4.14,22.36,4.42a110.76,110.76,0,0,0,13.87-.42c8.83-.79,17.24-3,24.15-9a20.89,20.89,0,0,0,6.84-11.11l.91-6c-.06-1.63,0-3.27-.19-4.89-.6-6.88-4.25-11.73-10.21-14.9a50.87,50.87,0,0,0-15.78-4.88c-8-1.33-16.14-2.33-24.18-3.68A93.78,93.78,0,0,1,967,526.52c-2.22-.65-4-2.08-4.26-4.59a30.28,30.28,0,0,1,0-3.81,8.34,8.34,0,0,1,4.09-5.79,24.92,24.92,0,0,1,12.1-3.06,14.79,14.79,0,0,0,1.73-.27l6.94.15a5.92,5.92,0,0,0,.93.12,29.41,29.41,0,0,1,13.63,3.06,14.14,14.14,0,0,1,5.41,5.88c.58,1.77,1.14,3.54,1.74,5.31.36,1.06.93,2,2.2,2.05,3.72,0,7.44,0,11.16,0a2.05,2.05,0,0,0,2.11-1.85c-.12-1.88-.38-3.76-.58-5.65l-1.91-5.86a3.74,3.74,0,0,0-.28-.75c-1.31-1.93-2.54-3.93-4-5.73a18,18,0,0,0-4-3.84,41.49,41.49,0,0,0-11.55-5.14c-5.63-1.53-11.39-1.47-17.12-1.85a30.24,30.24,0,0,0-3.67.22c-3.28.18-6.6.1-9.84.57a37.45,37.45,0,0,0-13.56,4.58c-4.78,2.81-8.65,6.47-10.57,11.85-.44,2-.87,4-1.31,6a2.59,2.59,0,0,0-.23.77c.06,1.71.09,3.42.24,5.12.61,7.08,4.3,12.1,10.45,15.41A44.53,44.53,0,0,0,971.65,544c7.59,1.1,15.22,1.89,22.82,2.94a47.29,47.29,0,0,1,12.43,3.2c3,1.29,4.93,3.37,4.78,6.88a1.5,1.5,0,0,0,.12.45,12.23,12.23,0,0,1-1.84,6,13.33,13.33,0,0,1-5.12,3.76,37.72,37.72,0,0,1-12.49,2.7c-3.58.24-10.57-.05-10.78,0l-5.35-.7c-5-.65-9.78-2-13.56-5.6Z" transform="translate(-861.83 -428.1)"/><path class="b" d="M1004.9,466.58c-1.93-1-3.89-2-5.79-3.05-6-3.35-11.91-6.75-17.87-10.12s-11.94-6.7-17.9-10.08a3.4,3.4,0,0,0-3.68,0c-3.34,1.9-6.7,3.75-10,5.65s-6.78,3.9-10.19,5.82c-6.43,3.63-12.88,7.22-19.31,10.83-.62.35-1.23.72-1.84,1.08-.47,0-.94-.13-1.42-.13H889c.51-.33.81-.54,1.12-.72q29.28-16.54,58.58-33.06a45.09,45.09,0,0,1,8.29-3.91,16.25,16.25,0,0,1,13.19,1.5q31.56,17.75,63.05,35.6a1.29,1.29,0,0,1,.59.61Z" transform="translate(-861.83 -428.1)"/><path class="c" d="M923.52,629c-1.82-1-2.36-1,.69-2.39,2.23-.93,4.55-1.64,6.77-2.6a45.78,45.78,0,0,0,5.32-2.7,3.06,3.06,0,0,1,3.45.08c6,3.53,12.13,7,18.19,10.54a23,23,0,0,0,2.24,1.32,3.63,3.63,0,0,0,3.4-.33q9.49-5.4,19-10.77l22.77-12.88a4.77,4.77,0,0,1,.66-.26c.47,0,1,.1,1.43.1h28l-8.4,4.76-38.59,21.79c-6.4,3.6-12.74,7.33-19.25,10.72A16.32,16.32,0,0,1,953,646c-7.71-4.29-15.3-8.78-22.94-13.19Z" transform="translate(-861.83 -428.1)"/><path class="d" d="M935.46,563.53c0,2,0,3.91,0,5.87,0,8.2,0,16.4,0,24.59a22.86,22.86,0,0,1-2,9.15l-38.75,0c-5.24,0-10.48,0-15.72,0a6.43,6.43,0,0,1-3.61-1c-2.53-1.59-5.29-2.88-7.59-4.75a15.69,15.69,0,0,1-5.93-12.7c0-6.55,0-13.11,0-19.67v-1.49h14.63q0,10,0,20a9.27,9.27,0,0,0,.18,1.39c.4.61.66,1.47,1.22,1.79,7.82,4.46,15.63,8.93,23.54,13.21a14.63,14.63,0,0,0,11.46,1.31,10.19,10.19,0,0,0,7.26-9.87V564.25c0-.24,0-.48.06-.72Z" transform="translate(-861.83 -428.1)"/><path class="e" d="M1046.38,490.8a23.08,23.08,0,0,0-2.83-2.25c-7.18-4.09-14.41-8.1-21.61-12.15-2.17-1.23-4.31-2.51-6.46-3.77,1,0,2-.07,3-.07,8.47,0,17,0,25.42,0a3.76,3.76,0,0,1,1.8.46,94.07,94.07,0,0,1,9.14,5.44,15.13,15.13,0,0,1,6.42,12.3c.15,7.07,0,14.14,0,21.38h-14.61c0-6.67,0-13.34,0-20A7.12,7.12,0,0,0,1046.38,490.8Z" transform="translate(-861.83 -428.1)"/><path class="e" d="M907.68,472.64c-3.12,1.73-6.26,3.45-9.37,5.22-2.3,1.3-4.54,2.69-6.85,4-2.68,1.51-5.39,2.95-8.09,4.44-1.84,1-3.7,2-5.49,3.15-.52.33-.79,1.05-1.18,1.59a9.27,9.27,0,0,0-.21,1.37q0,9.87,0,19.74H861.86v-1.36c0-6.44-.07-12.88,0-19.31s3-11.12,8.38-14.42l.62-.36c2.44-1.36,4.74-3.27,7.35-3.94s5.72-.19,8.59-.19h19.43C906.73,472.56,907.2,472.61,907.68,472.64Z" transform="translate(-861.83 -428.1)"/><path class="d" d="M1016.59,603l15.13-8.58c4.36-2.47,8.74-4.91,13.06-7.44a8.28,8.28,0,0,0,1.66-1.89,9.37,9.37,0,0,0,.2-1.38q0-10.1,0-20.21h14.52a3,3,0,0,1,.1.54c0,7.16.14,14.33-.07,21.48-.18,6-3.26,10.56-8.35,13.72-1.49.93-3.08,1.7-4.57,2.63a8.12,8.12,0,0,1-4.62,1.24c-8.52-.07-17,0-25.56,0C1017.62,603.12,1017.11,603.07,1016.59,603Z" transform="translate(-861.83 -428.1)"/><path class="f" d="M1046.69,518.17h14.56v39.34h-14.56q0-11.94,0-23.87C1046.65,528.49,1046.68,523.33,1046.69,518.17Z" transform="translate(-861.83 -428.1)"/><path class="f" d="M876.47,557.5H861.92V518.18h14.55Z" transform="translate(-861.83 -428.1)"/><path class="c" d="M929.93,609.18c-2.95,3.68-7,5.54-11.41,6.65a34.27,34.27,0,0,1-19.39-1.1,16.07,16.07,0,0,0-1.73-.37l-9-4.93c-.49-.26.08,0-.49-.28l1.11,0h40C929.29,609.12,929.61,609.16,929.93,609.18Z" transform="translate(-861.83 -428.1)"/><path class="f" d="M1011.8,557.51a1.5,1.5,0,0,1-.12-.45c.15-3.51-1.8-5.59-4.78-6.88a47.29,47.29,0,0,0-12.43-3.2c-7.6-1.05-15.23-1.84-22.82-2.94a44.53,44.53,0,0,1-14.87-4.57c-6.15-3.31-9.84-8.33-10.45-15.41-.15-1.7-.18-3.41-.24-5.12a2.59,2.59,0,0,1,.23-.77l16.41,0a30.28,30.28,0,0,0,0,3.81c.29,2.51,2,3.94,4.26,4.59a93.78,93.78,0,0,0,10.76,2.64c8,1.35,16.13,2.35,24.18,3.68a50.87,50.87,0,0,1,15.78,4.88c6,3.17,9.61,8,10.21,14.9.14,1.62.13,3.26.19,4.89Z" transform="translate(-861.83 -428.1)"/><path class="d" d="M1027.11,563.54a20.81,20.81,0,0,1-6.83,11.11c-6.92,6-15.32,8.19-24.16,9a110.71,110.71,0,0,1-13.87.42c-7.66-.28-15.23-1.29-22.36-4.42s-12.6-8-15.2-15.62a2.32,2.32,0,0,1-.07-.46l17.75-.06c3.82,3.78,8.65,5.14,13.78,5.8l5.35.7h10.27a6.32,6.32,0,0,0,1.06-.09,34.85,34.85,0,0,0,11.94-2.64,13.22,13.22,0,0,0,5.11-3.76l6.36,0Z" transform="translate(-861.83 -428.1)"/><path class="e" d="M980.8,509.2c-.74,0-1.3.05-1.88.07a24.92,24.92,0,0,0-12.1,3.06,11.17,11.17,0,0,0-1.39-.16q-8.91,0-17.8,0c1.92-5.38,5.79-9,10.57-11.85a37.45,37.45,0,0,1,13.56-4.58c3.24-.47,6.19-.6,9.47-.78a38.9,38.9,0,0,1,4,0c5.73.38,11.49.32,17.12,1.85a41.49,41.49,0,0,1,11.55,5.14,18,18,0,0,1,4,3.84c1.47,1.8,2.7,3.8,4,5.73a2.74,2.74,0,0,1,.25.66q-9.35,0-18.7,0a13.59,13.59,0,0,0-1.4.15,29.52,29.52,0,0,0-13.63-3.05c-.31,0-.79,0-.88,0H987C986.88,509.27,981.72,509.23,980.8,509.2Z" transform="translate(-861.83 -428.1)"/><path class="f" d="M935.46,518.17c0,.48,0,1,0,1.44q0,18.23,0,36.46c0,.48,0,1,0,1.44H920.23c0-.27-.06-.55-.06-.83V519c0-.28,0-.56.06-.83Z" transform="translate(-861.83 -428.1)"/><path class="e" d="M920.18,499.21a2.23,2.23,0,0,1,2.18-1.93h1.21c3.43,0,9-.14,9.69,0a3.15,3.15,0,0,1,2.24,1.91c0,4.49,0,8.39,0,12.88H920.23C920.23,507.67,920.18,503.67,920.18,499.21Z" transform="translate(-861.83 -428.1)"/><path class="f" d="M1024.2,518.16c.2,1.86.46,3.71.57,5.56a2.05,2.05,0,0,1-2.11,1.85c-3.72,0-7.44,0-11.16,0-1.27,0-1.84-1-2.2-2.05-.6-1.77-1.16-3.54-1.74-5.31Z" transform="translate(-861.83 -428.1)"/><path class="f" d="M959.49,557.5l-16,0a26.54,26.54,0,0,1,0-3.78c.18-1.36,1.23-1.81,2.58-1.74.57,0,1,0,1.53,0,3,0,6.06,0,9.09,0a2.14,2.14,0,0,1,2.12,1.77C959.08,555,959.25,556.26,959.49,557.5Z" transform="translate(-861.83 -428.1)"/></svg>