<svg xmlns="http://www.w3.org/2000/svg" viewBox="0 0 231.05 205.06"><defs><style>.a{fill:#f1815d;}.b{fill:#c7532c;}.c{fill:#404040;}.d{fill:#953e22;}.e{fill:#f06334;}.f{fill:#f0a58d;}</style></defs><title>ML40</title><path class="a" d="M1067.27,510.49c.19.21.36.43.56.62,3.25,3,3.23,6.9,3,10.86,0,.53-.28.79-.84.75-.32,0-.64,0-1,0H960.94a16.13,16.13,0,0,1-.16-5.08c.16-1,.52-1.94.61-2.93.16-1.76,1.61-2.6,2.59-3.77a3.18,3.18,0,0,0,.88-1.77c.23-2.51.7-5,1-7.48a20.93,20.93,0,0,0-.4-4.28,50.48,50.48,0,0,1,1-16.44c.15-.66.47-1,1.15-.93.16,0,.32,0,.48,0h96.47a4.45,4.45,0,0,1,.43.84,49.66,49.66,0,0,1,1.16,15.56c-.21,2.64-.87,5.28-.1,7.94.19.64.13,1.36.3,2C1066.73,507.74,1066.21,509.29,1067.27,510.49Z" transform="translate(-849.68 -442.6)"/><path class="b" d="M925.57,620.11c3-1.21,6-2.43,8.95-3.62,5-2,10.07-4,15.09-6,4.21-1.72,8.46-3.35,12.58-5.27s7.82-4,11.72-6,7.59-4,11.35-6a7.85,7.85,0,0,0,3.47-3.92c1.44-3.22,1.27-6.43.71-9.73-.06-.32-.1-.63-.13-1a4.94,4.94,0,0,1,0-.58h53c-.19,1.73-.3,3.39-.59,5a6.94,6.94,0,0,0,.35,3.75c.76,2,1.07,4.18,3,5.59a20,20,0,0,0,2.46,1.47q10.73,5.64,21.47,11.22a23.4,23.4,0,0,0,3.31,1.39c2.62.89,5,2.29,7.59,3.24.47.17.83.35.82,1,0,3.19,0,6.39,0,9.68H925.62Z" transform="translate(-849.68 -442.6)"/><path class="c" d="M964.09,474.5c-.79,3.08-2,6.05-2.55,9.21a51.72,51.72,0,0,0-.26,15.06,2.19,2.19,0,0,1-.58,1.94c-11.72,13.16-8.91,32.42,6.08,41.71a3.35,3.35,0,0,1,1.5,1.63,129.38,129.38,0,0,0,12.93,24.56c.17.27.33.55.47.83,0,.06,0,.15,0,.35a23.7,23.7,0,0,1-4.61-.13,1.4,1.4,0,0,0-1.59.86c-2.62,4.68-5.28,9.33-7.93,14-.2.35-.41.68-.64,1L955,581a27,27,0,0,0-4.8-1.95c.29-4.27,1.06-8.48,1.52-12.73.16-1.51.37-3,.59-4.52a1.41,1.41,0,0,0-.67-1.51,48.4,48.4,0,0,1-9.7-9,1.33,1.33,0,0,0-1.73-.49c-5.43,1.88-10.89,3.71-16.33,5.55l-1.47.49c-1-2.3-1.95-4.52-2.9-6.76-1.41-3.3-2.78-6.62-4.21-9.92-.34-.77-.35-1.19.49-1.7,4.87-2.92,9.67-5.93,14.53-8.86a1.4,1.4,0,0,0,.76-1.74,47.2,47.2,0,0,1-.67-12.89,1.38,1.38,0,0,0-.84-1.59c-5.44-2.87-10.85-5.81-16.28-8.69-.74-.39-1-.73-.62-1.57q3.18-7.17,6.27-14.4a1,1,0,0,1,1.26-.67c5.58,1,11.18,1.85,16.76,2.82a1.86,1.86,0,0,0,2.25-.92,43.22,43.22,0,0,1,7.24-8.44,1.67,1.67,0,0,0,.57-1.87c-1.29-5.52-2.53-11.05-3.81-16.58-.38-1.65-.4-1.63,1.17-2.36l15.38-7.12,6.77,10.54c0,.71.48,1.16.82,1.67a1.07,1.07,0,0,1,.08,1.3,23.26,23.26,0,0,0-1.73,3.12C965.11,471.61,964,472.83,964.09,474.5Z" transform="translate(-849.68 -442.6)"/><path class="d" d="M905.38,647.66c0-3.1.09-6.14,0-9.16-.08-2.23.89-4,1.95-5.78.76-1.27,1.46-2.57,2.19-3.85a3.74,3.74,0,0,1,3.52-2h167.63v20.79Z" transform="translate(-849.68 -442.6)"/><path class="e" d="M1069.58,529.18a18,18,0,0,1-3,4.57c-2.22,2.83-4.59,5.55-6.65,8.49a24.37,24.37,0,0,0-2.27,5,103.59,103.59,0,0,1-9.59,18.08c-1.07,1.64-2.09,3.32-3,5a1.82,1.82,0,0,1-1.87,1.09q-26.75,0-53.51,0c-.56,0-1.12,0-1.68,0a1.21,1.21,0,0,1-1.24-.7q-4-6.63-8-13.22a54.63,54.63,0,0,1-4.19-9,39.42,39.42,0,0,0-7.17-11.79c-1.61-1.87-3-3.91-4.53-5.87a2.91,2.91,0,0,1-.7-1.66Z" transform="translate(-849.68 -442.6)"/><path class="f" d="M1062.67,473.63H969c5.17-14.33,20.79-29,42-30.82C1036.18,440.66,1055.57,455.7,1062.67,473.63Z" transform="translate(-849.68 -442.6)"/><path class="c" d="M911.91,571h-1.6q-19.38,0-38.76,0a2.61,2.61,0,0,1-2.06-.87c-4.76-4.81-9.56-9.57-14.34-14.36a1.79,1.79,0,0,0-1.56-.62,3.54,3.54,0,1,1,3.12-2.81,1.44,1.44,0,0,0,.5,1.45q6.85,6.83,13.67,13.69a2.27,2.27,0,0,0,1.82.63h76a11.83,11.83,0,0,1-.19,2.76,2.72,2.72,0,0,1-1.32.11q-15.06,0-30.12,0a2.43,2.43,0,0,0-1.87.77c-2.71,2.63-5.24,5.46-8,8a2.27,2.27,0,0,1-1.71.63c-3.43,0-6.87,0-10.31,0a1.53,1.53,0,0,0-1.49.69,3.49,3.49,0,0,1-5.26.54,3.59,3.59,0,0,1,0-5.24,3.51,3.51,0,0,1,5.27.5,1.48,1.48,0,0,0,1.39.65c3,0,6.08,0,9.12,0a2.73,2.73,0,0,0,2.12-.85C908,574.81,909.83,573,911.91,571Z" transform="translate(-849.68 -442.6)"/><path class="c" d="M928.76,520.8v2.79a9.6,9.6,0,0,1-2.41.08c-3.08,0-6.16,0-9.23,0a2.38,2.38,0,0,0-2,.81c-1.33,1.47-2.78,2.84-4.15,4.29a2.07,2.07,0,0,1-1.67.7c-3.88,0-7.76,0-11.63,0a1.62,1.62,0,0,0-1.43.63,3.52,3.52,0,0,1-5.29.23,3.58,3.58,0,0,1,.28-5.23,3.53,3.53,0,0,1,5.24.8,1.38,1.38,0,0,0,1.35.71c3.28,0,6.56-.05,9.83,0a2.72,2.72,0,0,0,2.29-1,19.09,19.09,0,0,1,1.86-1.6l-.23-.34h-1.15q-20.62,0-41.26,0a1.88,1.88,0,0,0-1.78.84,3.47,3.47,0,0,1-5.19.34,3.57,3.57,0,0,1,0-5.15,3.5,3.5,0,0,1,5.2.33,1.82,1.82,0,0,0,1.69.78h59.68Z" transform="translate(-849.68 -442.6)"/><path class="c" d="M949.41,562.56l-.3,2.7c-.41.32-.87.17-1.29.17q-28.49,0-57,0a2.37,2.37,0,0,1-1.85-.8q-10.72-10.8-21.51-21.55a2.37,2.37,0,0,0-2-.85,3.43,3.43,0,0,1-3.56-3.67,3.54,3.54,0,0,1,4-3.39,3.47,3.47,0,0,1,3,4.12,1.87,1.87,0,0,0,.67,1.94q10.32,10.28,20.59,20.61a2.27,2.27,0,0,0,1.78.7h57.38Zm-83.92-26.21a2.35,2.35,0,1,0,2.35,2.35A2.35,2.35,0,0,0,865.49,536.35Z" transform="translate(-849.68 -442.6)"/><path class="c" d="M918.86,553.44c-3.84,0-7.47,0-11.11,0a1.59,1.59,0,0,0-1.49.69,3.5,3.5,0,0,1-5.27.49,3.61,3.61,0,0,1,0-5.24,3.49,3.49,0,0,1,5.19.46,1.65,1.65,0,0,0,1.59.74c1.32,0,2.63,0,4.12,0a17.74,17.74,0,0,0-2.32-2.46c-2.83-2.85-5.67-5.69-8.49-8.55a2.23,2.23,0,0,0-1.76-.77c-4.4,0-8.8,0-13.19,0a1.54,1.54,0,0,0-1.39.67,3.55,3.55,0,1,1-5.17-4.83,3.51,3.51,0,0,1,5.25.62,1.44,1.44,0,0,0,1.37.68c4.8,0,9.6,0,14.39,0a2.15,2.15,0,0,1,1.68.68c4.32,4.4,8.68,8.77,13,13.15.52.51,1,1,1.85.84a.64.64,0,0,1,.83.47C918.23,551.79,918.52,552.53,918.86,553.44Zm-13-1.42a2.35,2.35,0,1,0-2.38,2.33A2.32,2.32,0,0,0,905.83,552Zm-21.47-14.66A2.32,2.32,0,0,0,882,535a2.37,2.37,0,1,0,0,4.73A2.32,2.32,0,0,0,884.36,537.36Z" transform="translate(-849.68 -442.6)"/><path class="c" d="M964.09,474.5c-.11-1.67,1-2.89,1.59-4.3a23.26,23.26,0,0,1,1.73-3.12,1.07,1.07,0,0,0-.08-1.3c-.34-.51-.87-1-.82-1.67a9.72,9.72,0,0,1,1.3,1.82c.38.51.1,1-.16,1.44A61.54,61.54,0,0,0,964.09,474.5Z" transform="translate(-849.68 -442.6)"/></svg>