<svg xmlns="http://www.w3.org/2000/svg" viewBox="0 0 374.1 193.83"><defs><style>.cls-1{fill:#f0a58d;}.cls-2{fill:#f1815d;}.cls-3{fill:#f06334;}.cls-4{fill:#c7532c;}.cls-5{fill:#953e22;}</style></defs><title>webdev</title><g id="Layer_2" data-name="Layer 2"><g id="Layer_1-2" data-name="Layer 1"><g id="Layer_2-2" data-name="Layer 2"><path class="cls-1" d="M187.42,7A89.59,89.59,0,0,1,251.54,34h9.69a96.9,96.9,0,0,0-147.35,0h9.41A89.6,89.6,0,0,1,187.42,7Z"/><path class="cls-2" d="M274.29,74.52h7.39a96.33,96.33,0,0,0-16.23-35.08h-9.24A89.7,89.7,0,0,1,274.29,74.52Z"/><path class="cls-2" d="M118.36,39.44h-9.13A96.48,96.48,0,0,0,93,74.52h7.27A89.7,89.7,0,0,1,118.36,39.44Z"/><path class="cls-3" d="M283.05,79.82h-7.54a90.28,90.28,0,0,1-.07,34.72h7.45a98.06,98.06,0,0,0,.16-34.72Z"/><path class="cls-3" d="M97.42,97a90.69,90.69,0,0,1,1.64-17.16H92.18a97.74,97.74,0,0,0,.15,34.72h6.81A89.92,89.92,0,0,1,97.42,97Z"/><path class="cls-4" d="M100.33,119.94h-7.1a96.37,96.37,0,0,0,16.36,34.8h8.77A89.54,89.54,0,0,1,100.33,119.94Z"/><path class="cls-4" d="M274.17,119.94a89.52,89.52,0,0,1-18,34.8h9.06a96.35,96.35,0,0,0,16.35-34.8Z"/><path class="cls-5" d="M187.25,186.82a89.59,89.59,0,0,1-63.59-26.37h-9.39a96.91,96.91,0,0,0,146.36,0h-9.78A89.61,89.61,0,0,1,187.25,186.82Z"/></g><path class="cls-2" d="M95.76,74.52H278.07q-.79-3.45-1.81-6.79H97.57C96.89,70,96.28,72.22,95.76,74.52Z"/><path class="cls-4" d="M97.18,126.71H275.12c.69-2.22,1.31-4.48,1.84-6.77H95.33Q96.14,123.38,97.18,126.71Z"/><path class="cls-5" d="M121,167.22h131.5q3.35-3.24,6.4-6.77H114.64Q117.67,164,121,167.22Z"/><path class="cls-1" d="M116.08,34H259.25q-3-3.55-6.23-6.79H122.31Q119,30.41,116.08,34Z"/><path class="cls-5" d="M164.22,191a148.12,148.12,0,0,1-14.58-30.47h-7.83a169.63,169.63,0,0,0,11.11,26.88A97.12,97.12,0,0,0,164.22,191Z"/><path class="cls-5" d="M210.89,191a147.59,147.59,0,0,0,14.57-30.47h7.84a169.13,169.13,0,0,1-11.11,26.87A96.47,96.47,0,0,1,210.89,191Z"/><path class="cls-4" d="M140.09,154.68h7.68a188,188,0,0,1-7.21-34.8h-7.12A205.19,205.19,0,0,0,140.09,154.68Z"/><path class="cls-4" d="M235,154.81h-7.68a187.14,187.14,0,0,0,7.2-34.8h7.12A204.21,204.21,0,0,1,235,154.81Z"/><path class="cls-3" d="M139.55,96c0-5.46.29-10.85.73-16.14h-7.11c-.4,5.22-.63,10.51-.66,15.88q-.06,9.57.69,18.84h7.08Q139.52,105.42,139.55,96Z"/><path class="cls-3" d="M235.63,96c0-5.46-.28-10.85-.73-16.14H242q.62,7.83.67,15.88,0,9.57-.69,18.84h-7.08Q235.68,105.44,235.63,96Z"/><path class="cls-2" d="M140.33,39.44a206.53,206.53,0,0,0-6.62,35.08h7.15a189.51,189.51,0,0,1,7.23-35.08Z"/><path class="cls-2" d="M234.83,39.44a205.56,205.56,0,0,1,6.61,35.08h-7.15a188.7,188.7,0,0,0-7.22-35.08Z"/><path class="cls-1" d="M153.32,6.64A173.55,173.55,0,0,0,142.18,34h7.93A150.31,150.31,0,0,1,164.83,3,95.27,95.27,0,0,0,153.32,6.64Z"/><path class="cls-1" d="M221.91,6.64A173.55,173.55,0,0,1,233.05,34h-7.93A150.31,150.31,0,0,0,210.4,3,95.27,95.27,0,0,1,221.91,6.64Z"/><path class="cls-2" d="M90.24,57.33a10.11,10.11,0,0,0-2.5-7.09,8.08,8.08,0,0,0-6.2-2.72,11.14,11.14,0,0,0-4.62,1.09L25.62,74.53H67.13l18.48-9.14Q90.23,63,90.24,57.33Z"/><path class="cls-4" d="M76.92,146.71a9.61,9.61,0,0,0,4.62,1.09,8.05,8.05,0,0,0,6.2-2.73,10.07,10.07,0,0,0,2.5-7.08q0-5.67-4.63-8.07L65.45,120H23.64Z"/><path class="cls-3" d="M20.34,97.66,56.4,79.83H15.12l-6.8,3.44a13,13,0,0,0-6.1,5.67,18.45,18.45,0,0,0,0,17.55,14.44,14.44,0,0,0,6.1,5.77l4.55,2.29H54.51Z"/><path class="cls-2" d="M283.86,57.8a10.07,10.07,0,0,1,2.5-7.09A8.07,8.07,0,0,1,292.55,48a11.1,11.1,0,0,1,4.62,1.09L348.47,75H307l-18.48-9.14Q283.86,63.46,283.86,57.8Z"/><path class="cls-4" d="M297.17,147.18a9.67,9.67,0,0,1-4.62,1.09,8,8,0,0,1-6.19-2.73,10,10,0,0,1-2.5-7.08q0-5.67,4.62-8.07l20.17-10h41.81Z"/><path class="cls-3" d="M353.76,98.13,317.7,80.3H359l6.8,3.44a13,13,0,0,1,6.11,5.67,17.37,17.37,0,0,1,2.22,8.72,17.2,17.2,0,0,1-2.22,8.82,14.49,14.49,0,0,1-6.11,5.78L361.23,115H319.59Z"/></g></g></svg>