<svg xmlns="http://www.w3.org/2000/svg" viewBox="0 0 201.45 228.09"><defs><style>.a{fill:#404040;}.b{fill:#953e22;}.c{fill:#f0a58d;}.d{fill:#f06334;}.e{fill:#f1815d;}.f{fill:#c7532c;}</style></defs><title>linux40</title><path class="a" d="M912.49,602.61l-3.16-6c-.92-2.48-2-4.89-2.9-7.4a81.84,81.84,0,0,1-4.29-25.39c0-2.28.41-4.52.23-6.79.25-2,.49-4,.74-6a7.83,7.83,0,0,0,.25-.78c.61-3.24,1.06-6.51,1.86-9.7a85.78,85.78,0,0,1,7.83-20.75c1.49-2.7,3.16-5.31,4.5-8.1a25,25,0,0,0,2.83-6,15,15,0,0,0,.11-9.38c-1.27-4.3-3-8.47-4-12.84a59.32,59.32,0,0,1-1.39-7.73,48,48,0,0,1,.21-9.66,42.2,42.2,0,0,1,1.25-6,2.59,2.59,0,0,0,.51-1.19,27.18,27.18,0,0,1,2.75-5.82,26.53,26.53,0,0,1,7.65-7.46c3.63-2.56,7.48-4,12-3.32a15.71,15.71,0,0,1,12.89,9.94,18.88,18.88,0,0,1,1.23,7.84l-1.68,6a41.41,41.41,0,0,1-3.1,7.45,8.31,8.31,0,0,1-3.82,4.18c-2.37,1.22-2.86,3.82-1.14,5.6a11.69,11.69,0,0,0,3,2,2.26,2.26,0,0,1,1.29,1.7,10.3,10.3,0,0,0,7.91,8.52,8.49,8.49,0,0,0,3.64.52,14.2,14.2,0,0,0,8.46-4.53c1-1.1,2.08-2.38,2.07-3.82,0-2.1,1.4-2.69,2.75-3.52a6.27,6.27,0,0,0,.62-.36c1.3-.95,2.18-3.19,1.4-4s-1.51-2-2.77-2.47a4.8,4.8,0,0,1-2.74-2.64c-1.3-2.82-2.89-5.52-3.66-8.57q-.82-3-1.67-5.95c.06-.23.22-.49.17-.69a10.17,10.17,0,0,1,.31-4.59c1.7-8.84,11.15-14.69,19.76-12.05a25.06,25.06,0,0,1,13.13,9.83c1.63,2.29,2.51,4.94,3.59,7.49.41,2,.83,4,1.24,6a68.21,68.21,0,0,1,.27,8.94,56.59,56.59,0,0,1-2.06,10.83c-1,3.54-2.38,7-3.43,10.51a14.78,14.78,0,0,0,.14,9.34,22.27,22.27,0,0,0,2.76,6c.84,1.48,1.72,2.94,2.53,4.43,2.5,4.6,5.12,9.16,6.77,14.13a92.28,92.28,0,0,1,3.67,13.08c.46,2.57,1,5.12,1.56,7.68.25,2,.49,4,.74,6a29,29,0,0,0,.17,4.17,81.72,81.72,0,0,1-.41,10.25,77.88,77.88,0,0,1-3.14,15.73c-1,3.23-2.32,6.31-3.58,9.43l-3.16,6a3.66,3.66,0,0,0-.9,1.24,60.63,60.63,0,0,1-19,19.3,51.29,51.29,0,0,1-22.9,7.74,42.29,42.29,0,0,1-12.13-.71,52.19,52.19,0,0,1-19.39-8A60.48,60.48,0,0,1,918,610.38C916,607.92,914.33,605.2,912.49,602.61Zm74-127.64c3.64.28,7.23-3.27,7.22-7.08a7.36,7.36,0,0,0-7-7.33,7.21,7.21,0,0,0-7.38,7.18A7.1,7.1,0,0,0,986.45,475ZM931,475a7.19,7.19,0,1,0,.18-14.38,7.28,7.28,0,0,0-7.24,7.1C923.78,471.61,927.56,475.17,931,475Z" transform="translate(-858.53 -417.94)"/><path class="b" d="M912.49,602.61c1.84,2.59,3.52,5.31,5.55,7.77a60.48,60.48,0,0,0,12.77,11.76,52.19,52.19,0,0,0,19.39,8,42.29,42.29,0,0,0,12.13.71,51.29,51.29,0,0,0,22.9-7.74,60.63,60.63,0,0,0,19-19.3,3.66,3.66,0,0,1,.9-1.24h13.59A72.41,72.41,0,0,1,1004.6,617c2.59.86,5,1.55,7.4,2.5a51.51,51.51,0,0,1,14.65,8.95,12.11,12.11,0,0,1,2.6,3.41c1.31,2.46.81,4.59-2,5.89a26.1,26.1,0,0,1-3.2,1c-.24,3.19-1.73,4.73-5,5-5,.37-9.84,0-14.3-2.52-.75-.43-1.17-.36-1.54.51-1.19,2.75-3.51,3.88-6.34,4.23a22.4,22.4,0,0,1-9-1,61.14,61.14,0,0,1-15.2-6.37c-2.39-1.45-4.5-3.22-5.34-6-.18-.6-.62-.55-1.06-.5a60.45,60.45,0,0,1-14.1,0c-1.18-.14-1.87,0-2.38,1.36-1.08,2.84-3.53,4.49-6.08,5.87a60,60,0,0,1-18,6.59,15.51,15.51,0,0,1-6.54-.16,6.65,6.65,0,0,1-4.84-3.91c-.34-.8-.7-1.06-1.51-.59-4.42,2.52-9.25,2.93-14.18,2.55-2-.15-4-.68-4.76-3a3.11,3.11,0,0,1-.21-1.95c-.78-.21-1.55-.38-2.3-.6-3.9-1.17-4.7-4.19-2.33-7.48s5.51-5,8.62-7.1a50.64,50.64,0,0,1,13.87-6.09,4.31,4.31,0,0,0,1.89-.89,76.5,76.5,0,0,1-13.51-14Z" transform="translate(-858.53 -417.94)"/><path class="c" d="M953.54,460.08a18.88,18.88,0,0,0-1.23-7.84,15.71,15.71,0,0,0-12.89-9.94c-4.49-.65-8.34.76-12,3.32a26.53,26.53,0,0,0-7.65,7.46,27.18,27.18,0,0,0-2.75,5.82,2.59,2.59,0,0,1-.51,1.19H905.26c4.09-18.58,23.36-41.48,53.85-42.13s51.51,21.49,56.34,42.14H1001c-1.08-2.55-2-5.2-3.59-7.49a25.06,25.06,0,0,0-13.13-9.83c-8.61-2.64-18.06,3.21-19.76,12.05a10.17,10.17,0,0,0-.31,4.59c0,.2-.11.46-.17.69Z" transform="translate(-858.53 -417.94)"/><path class="d" d="M1014.49,551.05c-.52-2.56-1.1-5.11-1.56-7.68a92.28,92.28,0,0,0-3.67-13.08c-1.65-5-4.27-9.53-6.77-14.13-.81-1.49-1.69-2.95-2.53-4.43,1.35,0,2.71-.05,4.07-.05,10,0,19.92,0,29.88,0a2,2,0,0,1,1.85,1,176.16,176.16,0,0,1,19,35.13c.41,1,.77,2.09,1.22,3.29Z" transform="translate(-858.53 -417.94)"/><path class="d" d="M917.55,511.72c-1.34,2.79-3,5.4-4.5,8.1a85.78,85.78,0,0,0-7.83,20.75c-.8,3.19-1.25,6.46-1.86,9.7a7.83,7.83,0,0,1-.25.78H862.6c1-3,2.19-5.87,3.43-8.67a181.41,181.41,0,0,1,15-27.23,6.89,6.89,0,0,0,.75-1.07c.91-2.21,2.63-2.47,4.81-2.45,9.82.11,19.66.05,29.49.05C916.6,511.68,917.08,511.7,917.55,511.72Z" transform="translate(-858.53 -417.94)"/><path class="e" d="M997.2,505.7a14.78,14.78,0,0,1-.14-9.34c1.05-3.53,2.44-7,3.43-10.51a56.59,56.59,0,0,0,2.06-10.83,68.21,68.21,0,0,0-.27-8.94h14.57a36.1,36.1,0,0,1,.74,6.81c.07,4,0,7.92,0,11.87,0,2.52.13,5,.15,7.55a1.54,1.54,0,0,0,.72,1.39,64,64,0,0,1,11.55,11.42c.09.11.15.25.35.58Z" transform="translate(-858.53 -417.94)"/><path class="e" d="M915.29,466.08a48,48,0,0,0-.21,9.66,59.32,59.32,0,0,0,1.39,7.73c1.06,4.37,2.75,8.54,4,12.84a15,15,0,0,1-.11,9.38h-32c-.21-.43.12-.57.28-.76a63.15,63.15,0,0,1,11.48-11.33,1.13,1.13,0,0,1,.2-.13c2.38-.84,2.51-2.68,2.59-4.9.2-5.44-.14-10.87.12-16.3.1-2,.36-4,.67-6.19Z" transform="translate(-858.53 -417.94)"/><path class="f" d="M1008.27,596.62c1.26-3.12,2.6-6.2,3.58-9.43a77.88,77.88,0,0,0,3.14-15.73,81.72,81.72,0,0,0,.41-10.25,29,29,0,0,1-.17-4.17l17.73,0c.21,2.84-.21,5.65-.26,8.48a24.58,24.58,0,0,1-.53,4c-.64,3.47-.93,7.07-2.68,10.27a4.16,4.16,0,0,0-.3,1,11.13,11.13,0,0,1-.62,2.75,13.86,13.86,0,0,0-1.4,3.28c-.55,2.41-2,4.47-3.11,6.65a9.36,9.36,0,0,1-1.9,3.05Z" transform="translate(-858.53 -417.94)"/><path class="f" d="M902.37,557c.18,2.27-.27,4.51-.23,6.79a81.84,81.84,0,0,0,4.29,25.39c.87,2.51,2,4.92,2.9,7.4-4.19,0-8.39,0-12.58,0-.51,0-.94-.06-1.2-.58a29.72,29.72,0,0,1-2.06-3.91,2.55,2.55,0,0,0-.08-.93,76.43,76.43,0,0,1-3.38-7.64,72.37,72.37,0,0,1-4.43-26.51Z" transform="translate(-858.53 -417.94)"/><path class="f" d="M1022.16,596.6a9.36,9.36,0,0,0,1.9-3.05c1.1-2.18,2.56-4.24,3.11-6.65a13.86,13.86,0,0,1,1.4-3.28,11.13,11.13,0,0,0,.62-2.75,4.16,4.16,0,0,1,.3-1c1.75-3.2,2-6.8,2.68-10.27a24.58,24.58,0,0,0,.53-4c0-2.83.47-5.64.26-8.48l24,0c.54,0,1,0,1.19.67,1.11,4.38,2.21,8.76,1.72,13.34a8.87,8.87,0,0,1-.54,2.33,4.09,4.09,0,0,1-5.28,2.68c-3-.8-5.44-2.65-7.76-4.63A87.44,87.44,0,0,1,1034,557.76l-.49-.57c-.06,2.15-.08,4.08-.21,6a73,73,0,0,1-5.74,24.12,70,70,0,0,1-4.37,8.64C1022.91,596.33,1022.73,596.74,1022.16,596.6Z" transform="translate(-858.53 -417.94)"/><path class="f" d="M885.6,557.08A72.37,72.37,0,0,0,890,583.59a76.43,76.43,0,0,0,3.38,7.64,2.55,2.55,0,0,1,.08.93,50.91,50.91,0,0,1-4-9.06,71.59,71.59,0,0,1-4.16-21.68c0-1.31-.12-2.63-.19-3.94,0,0-.06,0-.16-.1-1.66,2.06-3.29,4.15-5,6.18a59,59,0,0,1-9.93,9.67,16.31,16.31,0,0,1-5.51,2.83,4.09,4.09,0,0,1-5.32-2.8,16.52,16.52,0,0,1-.43-7.59,58.46,58.46,0,0,1,1.55-7.62c.22-.82.59-1,1.41-1C869.69,557.07,877.64,557.07,885.6,557.08Z" transform="translate(-858.53 -417.94)"/><path class="e" d="M965.75,466.06c.77,3.05,2.36,5.75,3.66,8.57a4.8,4.8,0,0,0,2.74,2.64c1.26.48,1.94,1.58,2.77,2.47s-.1,3.09-1.4,4a6.27,6.27,0,0,1-.62.36c-1.35.83-2.76,1.42-2.75,3.52,0,1.44-1.06,2.72-2.07,3.82a14.2,14.2,0,0,1-8.46,4.53,8.49,8.49,0,0,1-3.64-.52,10.3,10.3,0,0,1-7.91-8.52,2.26,2.26,0,0,0-1.29-1.7,11.69,11.69,0,0,1-3-2c-1.72-1.78-1.23-4.38,1.14-5.6a8.31,8.31,0,0,0,3.82-4.18,41.41,41.41,0,0,0,3.1-7.45Z" transform="translate(-858.53 -417.94)"/></svg>