<svg xmlns="http://www.w3.org/2000/svg" viewBox="0 0 161.55 212.43"><defs><style>.a{fill:#c7532c;}.b{fill:#404040;}.c{fill:#f0a58d;}.d{fill:#f1815d;}.e{fill:#f06334;}.f{fill:#953e22;}</style></defs><title>java40</title><path class="a" d="M1018.06,598.54a25.5,25.5,0,0,1,5.81,3.74c3,2.85,2.79,6.63.95,9.81-2,3.4-5.09,5.53-8.44,7.34-6.52,3.52-13.6,5.42-20.78,7-3.8.84-7.62,1.54-11.46,2.07-3,.42-6,.8-9,1-4.81.4-9.62.74-14.45,1-6.83.35-13.66.15-20.48.14-2.88,0-5.79-.17-8.67-.47-4.81-.5-9.64-.89-14.44-1.6a118.51,118.51,0,0,1-20.4-4.59,38.36,38.36,0,0,1-12-6,12.28,12.28,0,0,1-4.56-6.2,8.61,8.61,0,0,1,2.81-8.4,27.82,27.82,0,0,1,14.12-5.7,58.23,58.23,0,0,1,9.62-.17c3.09.11,5.32,1.72,7.78,3.07.85.47,1.72.93,2.6,1.35.27.13.5.22.51.69a19.34,19.34,0,0,0-6.33-.42,19,19,0,0,0-10.61,3.43c-2,1.44-2,4,0,5.67a22.36,22.36,0,0,0,8,4.07,84.24,84.24,0,0,0,10.74,2.55c2.44.45,4.9.73,7.36,1.06s5.15.66,7.73.93c1.22.14,2.46.17,3.68.21,2.31.07,4.61.23,6.91.35,5.75.3,11.49.19,17.24.16,3.57,0,7.14-.21,10.7-.48,3.93-.29,7.87-.65,11.77-1.2a112.57,112.57,0,0,0,18.08-3.69c4-1.27,8-2.65,11.43-5.15a11,11,0,0,0,4.18-5A9,9,0,0,0,1018.06,598.54Z" transform="translate(-879.8 -433.7)"/><path class="b" d="M974.38,433.71c.51-.06.61.22.75.46,3.46,5.89,5.44,12.16,4.77,19.08-.57,5.82-2.92,11-6.08,15.82-3.9,5.95-8.8,11.06-13.69,16.17-4.43,4.62-9,9.08-12.67,14.38a23.69,23.69,0,0,0-3.31,6.61,12.6,12.6,0,0,0,.34,8.56,170.42,170.42,0,0,0,13.74,27.74c.13.2.23.41.34.6-.25.33-.45.12-.63,0-9.68-7.32-18.63-15.36-25.15-25.76a29.4,29.4,0,0,1-4.93-14.09A19.75,19.75,0,0,1,931.62,491c3.21-4.8,7.39-8.7,11.69-12.47,5.86-5.14,12.09-9.86,17.83-15.13,4.31-4,8.4-8.12,11.29-13.28S976.31,439.54,974.38,433.71Z" transform="translate(-879.8 -433.7)"/><path class="c" d="M1001.59,547.27c-1.19,1-2.33,2.07-3.57,3l-8.34,6.32c-1.5,1.14-3.19,1.27-4.82,1.59-4,.77-8,1.39-12.08,1.94-3.16.44-6.34.65-9.52,1-4.48.49-9,.78-13.48,1-2,.11-4.07,0-6.07.21a87.75,87.75,0,0,1-10.63.18c-3.57,0-7.15-.17-10.71-.48a96.08,96.08,0,0,1-16.84-2.62c-3.22-.88-6.41-1.95-8.92-4.27s-2.2-6.14.7-8.41c3.51-2.75,7.7-4,12-4.81,2.84-.57,5.71-1.05,8.58-1.43,2.19-.28,4.42-.28,6.62-.53,2.85-.2,6.86-.27,8.35-.24a14.52,14.52,0,0,0,3.86-.07,8.46,8.46,0,0,1-3.45,1.25,62,62,0,0,0-12,4.41,6.69,6.69,0,0,0-3,2.41c-.54.9-.21,1.41.64,1.72a21.69,21.69,0,0,0,4.91,1.1c3.85.46,7.73.58,11.61.78,5.75.31,11.49.17,17.23.11,2,0,4-.07,6.07-.17,3.37-.16,6.74-.24,10.1-.51,2.21-.18,4.43-.22,6.63-.47,2.93-.35,5.87-.6,8.81-.87s6-.68,8.91-1.07A61.79,61.79,0,0,0,1001,547a1.77,1.77,0,0,1,.46,0Z" transform="translate(-879.8 -433.7)"/><path class="b" d="M965.33,547.82c0-.47.45-.63.72-.9a25.68,25.68,0,0,0,5.34-7.32,12.88,12.88,0,0,0,0-11.45,61.32,61.32,0,0,0-5.06-8.13c-2.44-3.58-4.82-7.22-5.57-11.57-1.35-7.85,1-14.77,5.83-20.9a36.64,36.64,0,0,1,11.84-9.42c9.1-4.82,18.92-7.15,29.2-8.3-.18.54-.6.62-.89.81A168.24,168.24,0,0,0,983.86,488a51.75,51.75,0,0,0-5.62,6.22,11.37,11.37,0,0,0-1.76,11.2c1.2,3.63,3.24,6.85,5,10.2a29.57,29.57,0,0,1,3.45,9.27,16.7,16.7,0,0,1-3.1,12.47c-4,5.69-9.71,8.75-16.26,10.48C965.5,547.9,965.42,547.85,965.33,547.82Z" transform="translate(-879.8 -433.7)"/><path class="d" d="M994.25,576.84a102.61,102.61,0,0,1-18.8,5.57c-3.31.66-6.65,1.16-10,1.53-3.54.39-7.09.54-10.65.77-3,.19-6,.19-8.95.13a98.07,98.07,0,0,1-10.29-.72c-6-.74-12-1.71-17.68-4.06-2.3-1-4.66-1.93-6.23-4s-1.46-3.87.22-5.75a20,20,0,0,1,14-6.74l.67-.08c.15.34,0,.45-.3.63a4.65,4.65,0,0,0-1.11,1.22c-1.19,1.9-.81,3.4,1.13,4.52a25.06,25.06,0,0,0,8.12,2.6c7,1.26,14,1.08,21,.88A100.54,100.54,0,0,0,968,572a104.79,104.79,0,0,0,13.49-3,.94.94,0,0,1,.88,0c3.92,2.45,7.75,5,11.78,7.3C994.31,576.36,994.33,576.52,994.25,576.84Z" transform="translate(-879.8 -433.7)"/><path class="e" d="M932.61,585.23a1.88,1.88,0,0,1-.64,1.44,2.16,2.16,0,0,0,.46,3.26c1.93,1.45,4.23,1.8,6.51,2.12a55,55,0,0,0,10.58.49,115.46,115.46,0,0,0,13.87-1.36c3.48-.6,6.9-1.38,10.3-2.25a17,17,0,0,0,3.41-1.24,1.33,1.33,0,0,1,1.55.15c4,2.65,7.87,5.41,12,7.9a3,3,0,0,1,.63.66,53,53,0,0,1-9.8,4.42,85.93,85.93,0,0,1-9.76,2.57c-3.5.75-7,1.13-10.59,1.64-1,.15-2.05.17-3.07.25a108.81,108.81,0,0,1-13.39.23,64.6,64.6,0,0,1-18.25-2.84,18.4,18.4,0,0,1-5.55-2.77c-3.71-2.86-3.42-5.95-1.06-8.95a14.89,14.89,0,0,1,9.84-5.4A23.18,23.18,0,0,0,932.61,585.23Z" transform="translate(-879.8 -433.7)"/><path class="f" d="M906.07,633.36c1.93.44,3.78.89,5.65,1.3,4.15.9,8.34,1.61,12.52,2.33,3.69.64,7.41,1,11.1,1.61,1.95.3,3.94.34,5.91.52,4.39.41,8.79.54,13.19.78s8.93.22,13.39.12c2.93-.07,5.88-.13,8.79-.44s5.74-.56,8.6-.87c3.1-.33,6.17-.86,9.25-1.31,2.83-.41,5.63-1.1,8.42-1.73a113,113,0,0,0,16.77-5.2,73.14,73.14,0,0,0,17.91-10c1.25-1,2.36-2.1,3.63-3.24a5.63,5.63,0,0,1-.28,3.3c-1.21,4.67-4.2,8.1-7.94,10.92-7.22,5.44-15.54,8.37-24.19,10.59-4.23,1.08-8.52,1.85-12.82,2.58-2.29.4-4.63.48-6.94.78-8.69,1.12-17.43.68-26.15.66a84.57,84.57,0,0,1-10.63-.84c-2.7-.35-5.41-.62-8.1-1q-6-.87-11.83-2.18A150.18,150.18,0,0,1,914,636.74q-3.71-1.35-7.4-2.76C906.38,633.92,906.05,633.89,906.07,633.36Z" transform="translate(-879.8 -433.7)"/><path class="b" d="M1000.44,585.52a92,92,0,0,0,10.14-8.83c4.11-4.25,7.75-8.83,9.82-14.46a15.44,15.44,0,0,0,1.14-7.87c-.82-5-4.18-7.72-8.68-9.29a15.19,15.19,0,0,0-7.21-.61,1.17,1.17,0,0,1-.45,0c-.1,0-.17-.17-.3-.32,4.84-3.21,10-5.23,16-4.4a14.62,14.62,0,0,1,12.32,12.9c1.27,9.4-1.79,17.18-9.11,23.18C1017.22,581.48,1009.06,584.12,1000.44,585.52Z" transform="translate(-879.8 -433.7)"/></svg>